<svg width="20" height="20" viewBox="0 0 20 20" fill="none" xmlns="http://www.w3.org/2000/svg">
<g clip-path="url(#clip0_11_250)">
<path d="M17.023 16.4639C8.76814 20.3925 3.64513 17.1056 0.36569 15.1091C0.162744 14.9834 -0.182135 15.1386 0.117146 15.4823C1.2097 16.807 4.79021 20 9.46377 20C14.1373 20 16.9229 17.4482 17.2708 17.003C17.6165 16.5616 17.3723 16.3181 17.0229 16.4639H17.023ZM19.3414 15.1835C19.1197 14.8949 17.9935 14.841 17.2846 14.9281C16.5747 15.0127 15.5092 15.4466 15.6018 15.707C15.6494 15.8046 15.7464 15.7609 16.2341 15.717C16.7231 15.6682 18.093 15.4953 18.3785 15.8685C18.6653 16.2442 17.9416 18.0341 17.8094 18.3228C17.6816 18.6114 17.8581 18.6858 18.098 18.4936C18.3346 18.3014 18.7629 17.8036 19.0503 17.0994C19.3357 16.3912 19.5098 15.4033 19.3413 15.1835H19.3414Z" fill="#FF9900"/>
<path fill-rule="evenodd" clip-rule="evenodd" d="M11.4726 8.44756C11.4726 9.47836 11.4986 10.338 10.9776 11.2534C10.5571 11.9977 9.89095 12.4554 9.1467 12.4554C8.13075 12.4554 7.53904 11.6813 7.53904 10.5389C7.53904 8.28368 9.55969 7.87445 11.4726 7.87445V8.44756ZM14.1407 14.8968C13.9659 15.0531 13.7128 15.0643 13.5156 14.96C12.6373 14.2307 12.481 13.892 11.9973 13.1961C10.5459 14.6772 9.51883 15.12 7.63578 15.12C5.41039 15.12 3.67621 13.7468 3.67621 10.9967C3.67621 8.84954 4.84111 7.38699 6.49698 6.67251C7.93351 6.03977 9.93932 5.92819 11.4726 5.7533V5.41087C11.4726 4.78188 11.5209 4.03764 11.1525 3.49438C10.8287 3.00684 10.2109 2.80593 9.66761 2.80593C8.65916 2.80593 7.75854 3.32316 7.53904 4.39491C7.49434 4.63318 7.31945 4.86761 7.08135 4.87871L4.51353 4.60341C4.29769 4.55495 4.05959 4.38007 4.11913 4.04881C4.71076 0.937892 7.52036 0 10.036 0C11.3236 0 13.0056 0.342431 14.0217 1.31744C15.3093 2.51937 15.1865 4.12329 15.1865 5.86864V9.99192C15.1865 11.2311 15.7 11.7745 16.1838 12.4443C16.3549 12.6825 16.3922 12.9691 16.1763 13.1476C15.6367 13.5979 14.6766 14.4353 14.1482 14.9042L14.1407 14.8967" fill="white"/>
<path d="M17.023 16.4639C8.76814 20.3925 3.64513 17.1056 0.36569 15.1091C0.162744 14.9834 -0.182135 15.1386 0.117146 15.4823C1.2097 16.807 4.79021 20 9.46377 20C14.1373 20 16.9229 17.4482 17.2708 17.003C17.6165 16.5616 17.3723 16.3181 17.0229 16.4639H17.023ZM19.3414 15.1835C19.1197 14.8949 17.9935 14.841 17.2846 14.9281C16.5747 15.0127 15.5092 15.4466 15.6018 15.707C15.6494 15.8046 15.7464 15.7609 16.2341 15.717C16.7231 15.6682 18.093 15.4953 18.3785 15.8685C18.6653 16.2442 17.9416 18.0341 17.8094 18.3228C17.6816 18.6114 17.8581 18.6858 18.098 18.4936C18.3346 18.3014 18.7629 17.8036 19.0503 17.0994C19.3357 16.3912 19.5098 15.4033 19.3413 15.1835H19.3414Z" fill="#FF9900"/>
<path fill-rule="evenodd" clip-rule="evenodd" d="M11.4726 8.44756C11.4726 9.47836 11.4986 10.338 10.9776 11.2534C10.5571 11.9977 9.89095 12.4554 9.1467 12.4554C8.13075 12.4554 7.53904 11.6813 7.53904 10.5389C7.53904 8.28368 9.55969 7.87445 11.4726 7.87445V8.44756ZM14.1407 14.8968C13.9659 15.0531 13.7128 15.0643 13.5156 14.96C12.6373 14.2307 12.481 13.892 11.9973 13.1961C10.5459 14.6772 9.51883 15.12 7.63578 15.12C5.41039 15.12 3.67621 13.7468 3.67621 10.9967C3.67621 8.84954 4.84111 7.38699 6.49698 6.67251C7.93351 6.03977 9.93932 5.92819 11.4726 5.7533V5.41087C11.4726 4.78188 11.5209 4.03764 11.1525 3.49438C10.8287 3.00684 10.2109 2.80593 9.66761 2.80593C8.65916 2.80593 7.75854 3.32316 7.53904 4.39491C7.49434 4.63318 7.31945 4.86761 7.08135 4.87871L4.51353 4.60341C4.29769 4.55495 4.05959 4.38007 4.11913 4.04881C4.71076 0.937892 7.52036 0 10.036 0C11.3236 0 13.0056 0.342431 14.0217 1.31744C15.3093 2.51937 15.1865 4.12329 15.1865 5.86864V9.99192C15.1865 11.2311 15.7 11.7745 16.1838 12.4443C16.3549 12.6825 16.3922 12.9691 16.1763 13.1476C15.6367 13.5979 14.6766 14.4353 14.1482 14.9042L14.1407 14.8967" fill="white"/>
</g>
<defs>
<clipPath id="clip0_11_250">
<rect width="19.4075" height="20" fill="white"/>
</clipPath>
</defs>
</svg>
