<svg width="17" height="20" viewBox="0 0 17 20" fill="none" xmlns="http://www.w3.org/2000/svg">
<path d="M15.7636 6.81868C15.6476 6.90869 13.5994 8.06281 13.5994 10.6291C13.5994 13.5974 16.2056 14.6475 16.2836 14.6735C16.2716 14.7375 15.8696 16.1116 14.9095 17.5118C14.0534 18.7439 13.1593 19.974 11.7992 19.974C10.439 19.974 10.089 19.1839 8.51885 19.1839C6.94869 19.1839 6.44464 20 5.20052 20C3.9564 20 3.08831 18.8599 2.09021 17.4597C0.934093 15.8156 0 13.2613 0 10.8371C0 6.94869 2.52825 4.88649 5.0165 4.88649C6.33863 4.88649 7.44074 5.75458 8.27083 5.75458C9.10091 5.75458 10.293 4.83448 11.7972 4.83448C12.3672 4.83448 14.4154 4.88649 15.7636 6.81868ZM11.0831 3.18832C11.7052 2.45024 12.1452 1.42614 12.1452 0.40204C12.1452 0.260026 12.1332 0.116012 12.1072 0C11.0951 0.0380038 9.89099 0.674067 9.16492 1.51615C8.59486 2.16422 8.06281 3.18832 8.06281 4.22642C8.06281 4.38244 8.08881 4.53845 8.10081 4.58846C8.16482 4.60046 8.26883 4.61446 8.37284 4.61446C9.28093 4.61446 10.423 4.0064 11.0831 3.18832Z" fill="white"/>
</svg>
