<svg width="21" height="20" viewBox="0 0 21 20" fill="none" xmlns="http://www.w3.org/2000/svg">
<g clip-path="url(#clip0_11_285)">
<path d="M20.1 10.2273C20.1 9.51818 20.0364 8.83636 19.9182 8.18182H10.5V12.0545H15.8818C15.6455 13.3 14.9364 14.3545 13.8727 15.0636V17.5818H17.1182C19.0091 15.8364 20.1 13.2727 20.1 10.2273Z" fill="#4285F4"/>
<path d="M10.5 20C13.2 20 15.4636 19.1091 17.1182 17.5818L13.8727 15.0636C12.9818 15.6636 11.8455 16.0273 10.5 16.0273C7.9 16.0273 5.69091 14.2727 4.9 11.9091H1.57272V14.4909C3.21818 17.7545 6.59091 20 10.5 20Z" fill="#34A853"/>
<path d="M4.9 11.9C4.7 11.3 4.58182 10.6636 4.58182 10C4.58182 9.33636 4.7 8.7 4.9 8.1V5.51818H1.57273C0.890909 6.86364 0.5 8.38182 0.5 10C0.5 11.6182 0.890909 13.1364 1.57273 14.4818L4.16364 12.4636L4.9 11.9Z" fill="#FBBC05"/>
<path d="M10.5 3.98182C11.9727 3.98182 13.2818 4.49091 14.3273 5.47273L17.1909 2.60909C15.4545 0.990909 13.2 0 10.5 0C6.59091 0 3.21818 2.24546 1.57272 5.51818L4.9 8.1C5.69091 5.73636 7.9 3.98182 10.5 3.98182Z" fill="#EA4335"/>
</g>
<defs>
<clipPath id="clip0_11_285">
<rect width="20" height="20" fill="white" transform="translate(0.5)"/>
</clipPath>
</defs>
</svg>
