<svg width="21" height="20" viewBox="0 0 21 20" fill="none" xmlns="http://www.w3.org/2000/svg">
<g clip-path="url(#clip0_11_258)">
<path d="M10.5444 20L13.3547 4.19644C16.0335 4.19644 16.8778 4.4903 16.9998 5.68872C16.9998 5.68872 18.7962 5.01862 19.7032 3.65782C16.1665 2.01901 12.6133 1.94535 12.6133 1.94535L10.5396 4.4705H10.5444L8.4707 1.94456C8.4707 1.94456 4.91743 2.01822 1.38159 3.65703C2.28694 5.01782 4.08417 5.68792 4.08417 5.68792C4.20694 4.48872 5.0505 4.19565 7.7111 4.19327L10.5436 19.9992" fill="#E82127"/>
<path d="M10.5428 1.21663C13.4014 1.19446 16.6735 1.65861 20.0232 3.11842C20.4707 2.31287 20.5863 1.95644 20.5863 1.95644C16.9246 0.508515 13.4956 0.0126733 10.5428 0C7.5899 0.0126733 4.16099 0.508515 0.5 1.95723C0.5 1.95723 0.663168 2.39604 1.06238 3.11921C4.41129 1.65861 7.68416 1.19446 10.5428 1.21663Z" fill="#E82127"/>
</g>
<defs>
<clipPath id="clip0_11_258">
<rect width="20.0855" height="20" fill="white" transform="translate(0.5)"/>
</clipPath>
</defs>
</svg>
